<svg width="16" height="15" viewBox="0 0 16 15" fill="none" xmlns="http://www.w3.org/2000/svg">
<path d="M0.847656 7.54004C0.847656 8.98631 1.27653 10.4001 2.08003 11.6026C2.88354 12.8052 4.0256 13.7424 5.36178 14.2959C6.69797 14.8494 8.16827 14.9942 9.58675 14.712C11.0052 14.4299 12.3082 13.7334 13.3309 12.7108C14.3535 11.6881 15.05 10.3851 15.3321 8.96663C15.6143 7.54815 15.4695 6.07785 14.916 4.74166C14.3626 3.40548 13.4253 2.26342 12.2228 1.45991C11.0202 0.656406 9.60643 0.227536 8.16016 0.227536C6.22139 0.229583 4.36262 1.00066 2.9917 2.37158C1.62078 3.7425 0.849704 5.60127 0.847656 7.54004ZM14.3477 7.54004C14.3477 8.76381 13.9848 9.9601 13.3049 10.9776C12.625 11.9952 11.6586 12.7882 10.528 13.2565C9.39739 13.7249 8.15329 13.8474 6.95303 13.6086C5.75278 13.3699 4.65027 12.7806 3.78493 11.9153C2.9196 11.0499 2.33029 9.94741 2.09155 8.74716C1.8528 7.5469 1.97533 6.3028 2.44365 5.17218C2.91197 4.04156 3.70504 3.07521 4.72257 2.39532C5.74009 1.71543 6.93638 1.35254 8.16016 1.35254C9.80061 1.3544 11.3733 2.00689 12.5333 3.16687C13.6933 4.32685 14.3458 5.89958 14.3477 7.54004ZM8.32469 4.89207C8.37693 4.83977 8.43897 4.79828 8.50725 4.76997C8.57554 4.74166 8.64874 4.72709 8.72266 4.72709C8.79658 4.72709 8.86977 4.74166 8.93806 4.76997C9.00635 4.79828 9.06838 4.83977 9.12063 4.89207L11.3706 7.14207C11.4229 7.19431 11.4644 7.25635 11.4927 7.32463C11.521 7.39292 11.5356 7.46611 11.5356 7.54004C11.5356 7.61396 11.521 7.68715 11.4927 7.75544C11.4644 7.82373 11.4229 7.88576 11.3706 7.938L9.12063 10.188C9.01508 10.2936 8.87192 10.3528 8.72266 10.3528C8.57339 10.3528 8.43023 10.2936 8.32469 10.188C8.21914 10.0825 8.15984 9.9393 8.15984 9.79004C8.15984 9.64077 8.21914 9.49761 8.32469 9.39207L9.61492 8.10254H5.34766C5.19847 8.10254 5.0554 8.04327 4.94991 7.93778C4.84442 7.83229 4.78516 7.68922 4.78516 7.54004C4.78516 7.39085 4.84442 7.24778 4.94991 7.14229C5.0554 7.0368 5.19847 6.97754 5.34766 6.97754H9.61492L8.32469 5.688C8.27239 5.63576 8.2309 5.57373 8.20259 5.50544C8.17428 5.43715 8.15971 5.36396 8.15971 5.29004C8.15971 5.21611 8.17428 5.14292 8.20259 5.07463C8.2309 5.00635 8.27239 4.94431 8.32469 4.89207Z" fill="#004D8B"/>
</svg>
