<svg width="13" height="13" viewBox="0 0 13 13" fill="none" xmlns="http://www.w3.org/2000/svg">
<path d="M6.2002 0.376465C4.99497 0.376465 3.8168 0.733857 2.81469 1.40345C1.81258 2.07304 1.03153 3.02475 0.570307 4.13824C0.109086 5.25172 -0.0115909 6.47697 0.223538 7.65905C0.458666 8.84112 1.03904 9.92692 1.89127 10.7791C2.74349 11.6314 3.82929 12.2117 5.01137 12.4469C6.19344 12.682 7.41869 12.5613 8.53218 12.1001C9.64566 11.6389 10.5974 10.8578 11.267 9.85572C11.9366 8.85361 12.2939 7.67544 12.2939 6.47021C12.2922 4.85458 11.6497 3.3056 10.5072 2.16317C9.36482 1.02074 7.81584 0.378171 6.2002 0.376465ZM6.2002 11.6265C5.18039 11.6265 4.18348 11.3241 3.33554 10.7575C2.4876 10.1909 1.82671 9.38561 1.43644 8.44343C1.04618 7.50125 0.944069 6.4645 1.14302 5.46428C1.34198 4.46407 1.83306 3.54531 2.55418 2.8242C3.27529 2.10308 4.19405 1.612 5.19426 1.41304C6.19448 1.21409 7.23123 1.3162 8.17341 1.70646C9.11559 2.09673 9.92089 2.75761 10.4875 3.60556C11.054 4.4535 11.3564 5.45041 11.3564 6.47021C11.3549 7.83726 10.8112 9.14787 9.8445 10.1145C8.87786 11.0812 7.56724 11.6249 6.2002 11.6265Z" fill="#004D8B"/>
<path d="M6.2002 10.689C8.53015 10.689 10.4189 8.80017 10.4189 6.47021C10.4189 4.14026 8.53015 2.25146 6.2002 2.25146C3.87024 2.25146 1.98145 4.14026 1.98145 6.47021C1.98145 8.80017 3.87024 10.689 6.2002 10.689Z" fill="#004D8B"/>
</svg>
