<svg width="13" height="13" viewBox="0 0 13 13" fill="none" xmlns="http://www.w3.org/2000/svg">
<path d="M6.19001 0.686523C4.98478 0.686523 3.80661 1.04392 2.8045 1.71351C1.80239 2.3831 1.02134 3.33481 0.560114 4.4483C0.0988928 5.56178 -0.0217838 6.78703 0.213345 7.96911C0.448474 9.15118 1.02885 10.237 1.88107 11.0892C2.7333 11.9414 3.8191 12.5218 5.00117 12.7569C6.18325 12.9921 7.40849 12.8714 8.52198 12.4102C9.63547 11.9489 10.5872 11.1679 11.2568 10.1658C11.9264 9.16367 12.2838 7.9855 12.2838 6.78027C12.282 5.16463 11.6395 3.61566 10.4971 2.47323C9.35462 1.3308 7.80564 0.68823 6.19001 0.686523ZM6.19001 11.9365C5.1702 11.9365 4.17329 11.6341 3.32535 11.0675C2.47741 10.501 1.81652 9.69567 1.42625 8.75348C1.03599 7.8113 0.933876 6.77455 1.13283 5.77434C1.33179 4.77412 1.82287 3.85537 2.54399 3.13425C3.2651 2.41314 4.18386 1.92205 5.18407 1.7231C6.18429 1.52414 7.22104 1.62626 8.16322 2.01652C9.1054 2.40678 9.91069 3.06767 10.4773 3.91561C11.0438 4.76356 11.3463 5.76046 11.3463 6.78027C11.3447 8.14732 10.801 9.45793 9.83431 10.4246C8.86766 11.3912 7.55705 11.935 6.19001 11.9365Z" fill="#97C024"/>
<path d="M6.19 10.999C8.51995 10.999 10.4088 9.11022 10.4088 6.78027C10.4088 4.45032 8.51995 2.56152 6.19 2.56152C3.86005 2.56152 1.97125 4.45032 1.97125 6.78027C1.97125 9.11022 3.86005 10.999 6.19 10.999Z" fill="#97C024"/>
</svg>
