<svg width="13" height="13" viewBox="0 0 13 13" fill="none" xmlns="http://www.w3.org/2000/svg">
<path d="M6.79981 0.376221C5.59458 0.376221 4.41641 0.733613 3.4143 1.4032C2.41219 2.07279 1.63114 3.02451 1.16992 4.13799C0.708695 5.25148 0.588018 6.47673 0.823147 7.6588C1.05828 8.84087 1.63865 9.92668 2.49088 10.7789C3.3431 11.6311 4.4289 12.2115 5.61098 12.4466C6.79305 12.6818 8.0183 12.5611 9.13178 12.0999C10.2453 11.6386 11.197 10.8576 11.8666 9.85548C12.5362 8.85336 12.8936 7.6752 12.8936 6.46997C12.8919 4.85433 12.2493 3.30535 11.1069 2.16292C9.96443 1.02049 8.41545 0.377927 6.79981 0.376221ZM6.79981 11.6262C5.78 11.6262 4.78309 11.3238 3.93515 10.7572C3.08721 10.1907 2.42632 9.38536 2.03605 8.44318C1.64579 7.501 1.54368 6.46425 1.74263 5.46404C1.94159 4.46382 2.43267 3.54507 3.15379 2.82395C3.8749 2.10284 4.79366 1.61175 5.79387 1.4128C6.79409 1.21384 7.83084 1.31595 8.77302 1.70622C9.7152 2.09648 10.5205 2.75737 11.0871 3.60531C11.6536 4.45325 11.9561 5.45016 11.9561 6.46997C11.9545 7.83702 11.4108 9.14763 10.4441 10.1143C9.47747 11.0809 8.16685 11.6247 6.79981 11.6262Z" fill="#97C024"/>
<path d="M6.7998 10.6887C9.12976 10.6887 11.0186 8.79992 11.0186 6.46997C11.0186 4.14002 9.12976 2.25122 6.7998 2.25122C4.46985 2.25122 2.58105 4.14002 2.58105 6.46997C2.58105 8.79992 4.46985 10.6887 6.7998 10.6887Z" fill="#97C024"/>
</svg>
