<svg width="28" height="28" viewBox="0 0 28 28" fill="none" xmlns="http://www.w3.org/2000/svg">
<path d="M20.205 0.37793H7.45502C5.48312 0.380039 3.59259 1.16431 2.19824 2.55865C0.803896 3.953 0.0196265 5.84353 0.0175171 7.81543V20.5654C0.0196265 22.5373 0.803896 24.4279 2.19824 25.8222C3.59259 27.2166 5.48312 28.0008 7.45502 28.0029H20.205C22.1769 28.0008 24.0674 27.2166 25.4618 25.8222C26.8561 24.4279 27.6404 22.5373 27.6425 20.5654V7.81543C27.6404 5.84353 26.8561 3.953 25.4618 2.55865C24.0674 1.16431 22.1769 0.380039 20.205 0.37793ZM13.83 20.5654C12.5692 20.5654 11.3366 20.1915 10.2883 19.491C9.23989 18.7906 8.42279 17.7949 7.94029 16.63C7.45778 15.4652 7.33153 14.1834 7.57751 12.9467C7.82349 11.7101 8.43065 10.5742 9.32221 9.68262C10.2138 8.79106 11.3497 8.1839 12.5863 7.93792C13.8229 7.69194 15.1047 7.81819 16.2696 8.3007C17.4345 8.78321 18.4301 9.60031 19.1306 10.6487C19.8311 11.697 20.205 12.9296 20.205 14.1904C20.2033 15.8806 19.531 17.5011 18.3359 18.6963C17.1407 19.8915 15.5202 20.5637 13.83 20.5654ZM21.7988 7.81543C21.4836 7.81543 21.1754 7.72196 20.9133 7.54683C20.6512 7.37171 20.447 7.1228 20.3263 6.83158C20.2057 6.54036 20.1741 6.21991 20.2356 5.91075C20.2971 5.6016 20.4489 5.31762 20.6718 5.09473C20.8947 4.87184 21.1787 4.72005 21.4878 4.65855C21.797 4.59706 22.1174 4.62862 22.4087 4.74925C22.6999 4.86987 22.9488 5.07415 23.1239 5.33624C23.299 5.59833 23.3925 5.90647 23.3925 6.22168C23.3925 6.64437 23.2246 7.04975 22.9257 7.34863C22.6268 7.64752 22.2215 7.81543 21.7988 7.81543ZM18.08 14.1904C18.08 15.031 17.8308 15.8527 17.3638 16.5516C16.8968 17.2505 16.233 17.7952 15.4564 18.1169C14.6798 18.4386 13.8253 18.5228 13.0009 18.3588C12.1765 18.1948 11.4192 17.79 10.8248 17.1956C10.2304 16.6013 9.82567 15.844 9.66168 15.0196C9.49769 14.1951 9.58186 13.3406 9.90353 12.564C10.2252 11.7874 10.7699 11.1237 11.4688 10.6567C12.1678 10.1897 12.9894 9.94043 13.83 9.94043C14.9572 9.94043 16.0382 10.3882 16.8352 11.1852C17.6322 11.9823 18.08 13.0633 18.08 14.1904Z" fill="#97c024"/>
</svg>
