<svg width="14" height="14" viewBox="0 0 14 14" fill="none" xmlns="http://www.w3.org/2000/svg">
<path d="M7 0.90625C5.79477 0.90625 4.61661 1.26364 3.6145 1.93323C2.61238 2.60282 1.83133 3.55454 1.37011 4.66802C0.90889 5.78151 0.788214 7.00676 1.02334 8.18883C1.25847 9.3709 1.83884 10.4567 2.69107 11.3089C3.5433 12.1612 4.6291 12.7415 5.81117 12.9767C6.99324 13.2118 8.21849 13.0911 9.33198 12.6299C10.4455 12.1687 11.3972 11.3876 12.0668 10.3855C12.7364 9.38339 13.0938 8.20523 13.0938 7C13.092 5.38436 12.4495 3.83538 11.307 2.69295C10.1646 1.55052 8.61564 0.907956 7 0.90625ZM7 12.1562C5.98019 12.1562 4.98328 11.8538 4.13534 11.2873C3.2874 10.7207 2.62651 9.91539 2.23625 8.97321C1.84598 8.03103 1.74387 6.99428 1.94283 5.99407C2.14178 4.99385 2.63287 4.0751 3.35398 3.35398C4.0751 2.63287 4.99385 2.14178 5.99407 1.94283C6.99428 1.74387 8.03103 1.84598 8.97321 2.23625C9.9154 2.62651 10.7207 3.2874 11.2873 4.13534C11.8538 4.98328 12.1563 5.98019 12.1563 7C12.1547 8.36705 11.611 9.67766 10.6443 10.6443C9.67766 11.611 8.36705 12.1547 7 12.1562Z" fill="#22A2AF"/>
<path d="M7 11.2188C9.32995 11.2188 11.2188 9.32995 11.2188 7C11.2188 4.67005 9.32995 2.78125 7 2.78125C4.67005 2.78125 2.78125 4.67005 2.78125 7C2.78125 9.32995 4.67005 11.2188 7 11.2188Z" fill="#22A2AF"/>
</svg>
