<svg width="31" height="24" viewBox="0 0 31 24" fill="none" xmlns="http://www.w3.org/2000/svg">
<path d="M29.6219 4.42356C29.4968 3.93394 29.257 3.4811 28.9224 3.10238C28.5878 2.72367 28.168 2.42994 27.6975 2.24543C23.1447 0.486997 15.8984 0.502935 15.5 0.502935C15.1015 0.502935 7.8553 0.486997 3.30248 2.24543C2.83201 2.42994 2.41216 2.72367 2.07755 3.10238C1.74294 3.4811 1.50318 3.93394 1.37803 4.42356C1.03405 5.74903 0.624985 8.17153 0.624985 12.1904C0.624985 16.2093 1.03405 18.6318 1.37803 19.9573C1.50299 20.4472 1.74267 20.9003 2.07729 21.2792C2.4119 21.6582 2.83186 21.9521 3.30248 22.1368C7.66405 23.8195 14.4906 23.8779 15.4123 23.8779H15.5876C16.5094 23.8779 23.3399 23.8195 27.6975 22.1368C28.1681 21.9521 28.5881 21.6582 28.9227 21.2792C29.2573 20.9003 29.497 20.4472 29.6219 19.9573C29.9659 18.6292 30.375 16.2093 30.375 12.1904C30.375 8.17153 29.9659 5.74903 29.6219 4.42356ZM19.8283 13.0564L14.5158 16.7751C14.3569 16.8864 14.1706 16.9521 13.977 16.9651C13.7834 16.978 13.5899 16.9376 13.4176 16.8484C13.2453 16.7592 13.1007 16.6245 12.9996 16.4589C12.8984 16.2933 12.8445 16.1032 12.8437 15.9092V8.47168C12.8438 8.27732 12.8972 8.08669 12.998 7.92055C13.0989 7.75441 13.2434 7.61912 13.4159 7.52941C13.5883 7.43971 13.782 7.39902 13.976 7.41177C14.1699 7.42453 14.3567 7.49024 14.5158 7.60176L19.8283 11.3205C19.9681 11.4185 20.0822 11.5487 20.1609 11.7002C20.2397 11.8516 20.2808 12.0198 20.2808 12.1904C20.2808 12.3611 20.2397 12.5293 20.1609 12.6807C20.0822 12.8321 19.9681 12.9624 19.8283 13.0604V13.0564Z" fill="#F7F6E9"/>
</svg>
