<svg width="27" height="26" viewBox="0 0 27 26" fill="none" xmlns="http://www.w3.org/2000/svg">
<path d="M26.0005 12.1839L20.7153 16.7964L22.2985 23.6636C22.3823 24.0226 22.3584 24.3984 22.2298 24.7438C22.1012 25.0893 21.8736 25.3892 21.5755 25.6061C21.2773 25.8229 20.9219 25.9471 20.5536 25.963C20.1853 25.9789 19.8205 25.8859 19.5048 25.6957L13.5153 22.0629L7.53873 25.6957C7.223 25.8859 6.85817 25.9789 6.48988 25.963C6.12158 25.9471 5.76615 25.8229 5.46803 25.6061C5.1699 25.3892 4.94231 25.0893 4.81371 24.7438C4.68511 24.3984 4.66121 24.0226 4.74498 23.6636L6.32584 16.8035L1.03952 12.1839C0.759917 11.9428 0.557737 11.6245 0.458331 11.2689C0.358926 10.9133 0.366719 10.5363 0.480733 10.1851C0.594747 9.83391 0.809908 9.52421 1.09923 9.29482C1.38856 9.06544 1.73917 8.92658 2.10709 8.89567L9.07506 8.29215L11.795 1.80465C11.937 1.46424 12.1766 1.17346 12.4836 0.968935C12.7905 0.764408 13.1511 0.655273 13.52 0.655273C13.8888 0.655273 14.2495 0.764408 14.5564 0.968935C14.8634 1.17346 15.1029 1.46424 15.245 1.80465L17.9731 8.29215L24.9387 8.89567C25.3067 8.92658 25.6573 9.06544 25.9466 9.29482C26.2359 9.52421 26.4511 9.83391 26.5651 10.1851C26.6791 10.5363 26.6869 10.9133 26.5875 11.2689C26.4881 11.6245 26.2859 11.9428 26.0063 12.1839H26.0005Z" fill="#97C024"/>
</svg>
