<svg width="29" height="28" viewBox="0 0 29 28" fill="none" xmlns="http://www.w3.org/2000/svg">
<path d="M28.3125 14.1908C28.3081 17.5666 27.0695 20.8244 24.83 23.3504C22.5904 25.8764 19.5045 27.4963 16.1535 27.905C16.0789 27.9135 16.0033 27.906 15.9318 27.8831C15.8603 27.8602 15.7944 27.8224 15.7386 27.7722C15.6827 27.722 15.6382 27.6606 15.6078 27.5919C15.5775 27.5232 15.562 27.4489 15.5625 27.3738V17.3783H18.75C18.8956 17.3786 19.0398 17.349 19.1735 17.2912C19.3072 17.2335 19.4277 17.1489 19.5273 17.0426C19.627 16.9364 19.7037 16.8108 19.7527 16.6737C19.8018 16.5365 19.8221 16.3907 19.8125 16.2454C19.789 15.9722 19.663 15.718 19.4597 15.5339C19.2564 15.3499 18.991 15.2496 18.7168 15.2533H15.5625V12.0658C15.5625 11.5022 15.7864 10.9617 16.1849 10.5632C16.5834 10.1647 17.1239 9.94079 17.6875 9.94079H19.8125C19.9581 9.94111 20.1023 9.91148 20.236 9.85374C20.3697 9.796 20.4902 9.71138 20.5898 9.60513C20.6895 9.49889 20.7662 9.3733 20.8152 9.23615C20.8643 9.09901 20.8846 8.95324 20.875 8.8079C20.8515 8.53422 20.7251 8.27963 20.5212 8.09551C20.3174 7.91138 20.0513 7.81142 19.7766 7.81579H17.6875C16.5603 7.81579 15.4793 8.26356 14.6823 9.06059C13.8853 9.85762 13.4375 10.9386 13.4375 12.0658V15.2533H10.25C10.1043 15.253 9.96016 15.2826 9.82644 15.3403C9.69272 15.3981 9.5723 15.4827 9.47266 15.589C9.37302 15.6952 9.29629 15.8208 9.24723 15.9579C9.19817 16.0951 9.17784 16.2408 9.18749 16.3862C9.21099 16.6599 9.33741 16.9144 9.54125 17.0986C9.7451 17.2827 10.0112 17.3827 10.2858 17.3783H13.4375V27.3764C13.4379 27.4514 13.4225 27.5256 13.3922 27.5942C13.362 27.6628 13.3175 27.7242 13.2618 27.7743C13.2061 27.8245 13.1404 27.8623 13.0691 27.8853C12.9977 27.9083 12.9223 27.9159 12.8478 27.9077C9.4071 27.4887 6.24909 25.7932 3.99886 23.1568C1.74864 20.5204 0.570191 17.1353 0.696782 13.6715C0.962407 6.49962 6.77163 0.669152 13.9488 0.390246C15.807 0.31827 17.6606 0.621806 19.3987 1.2827C21.1369 1.94359 22.7239 2.94826 24.0648 4.23662C25.4057 5.52498 26.4731 7.07056 27.2029 8.78091C27.9327 10.4913 28.3101 12.3312 28.3125 14.1908Z" fill="#F7F6E9"/>
</svg>
