<svg width="26" height="26" viewBox="0 0 26 26" fill="none" xmlns="http://www.w3.org/2000/svg">
<path d="M23.795 0.44043H2.545C1.98141 0.44043 1.44091 0.664313 1.0424 1.06283C0.643881 1.46134 0.419998 2.00184 0.419998 2.56543V23.8154C0.419998 24.379 0.643881 24.9195 1.0424 25.318C1.44091 25.7165 1.98141 25.9404 2.545 25.9404H23.795C24.3586 25.9404 24.8991 25.7165 25.2976 25.318C25.6961 24.9195 25.92 24.379 25.92 23.8154V2.56543C25.92 2.00184 25.6961 1.46134 25.2976 1.06283C24.8991 0.664313 24.3586 0.44043 23.795 0.44043ZM20.2967 18.8137C20.3954 18.9124 20.4737 19.0296 20.5272 19.1586C20.5806 19.2876 20.6081 19.4258 20.6081 19.5654C20.6081 19.705 20.5806 19.8433 20.5272 19.9723C20.4737 20.1012 20.3954 20.2184 20.2967 20.3171C20.198 20.4159 20.0808 20.4942 19.9518 20.5476C19.8228 20.601 19.6846 20.6285 19.545 20.6285C19.4054 20.6285 19.2672 20.601 19.1382 20.5476C19.0092 20.4942 18.892 20.4159 18.7933 20.3171L13.17 14.6925L7.54672 20.3171C7.34735 20.5165 7.07695 20.6285 6.795 20.6285C6.51305 20.6285 6.24265 20.5165 6.04328 20.3171C5.84391 20.1178 5.73191 19.8474 5.73191 19.5654C5.73191 19.2835 5.84391 19.0131 6.04328 18.8137L11.6679 13.1904L6.04328 7.56715C5.84391 7.36778 5.73191 7.09738 5.73191 6.81543C5.73191 6.53348 5.84391 6.26308 6.04328 6.06371C6.24265 5.86434 6.51305 5.75234 6.795 5.75234C7.07695 5.75234 7.34735 5.86434 7.54672 6.06371L13.17 11.6883L18.7933 6.06371C18.9926 5.86434 19.263 5.75234 19.545 5.75234C19.8269 5.75234 20.0973 5.86434 20.2967 6.06371C20.4961 6.26308 20.6081 6.53348 20.6081 6.81543C20.6081 7.09738 20.4961 7.36778 20.2967 7.56715L14.6721 13.1904L20.2967 18.8137Z" fill="#F7F6E9"/>
</svg>
