<svg width="28" height="28" viewBox="0 0 28 28" fill="none" xmlns="http://www.w3.org/2000/svg">
<path d="M25.8575 0.37793H2.4825C1.91891 0.37793 1.37841 0.601813 0.979896 1.00033C0.581381 1.39884 0.357498 1.93934 0.357498 2.50293V25.8779C0.357498 26.4415 0.581381 26.982 0.979896 27.3805C1.37841 27.779 1.91891 28.0029 2.4825 28.0029H25.8575C26.4211 28.0029 26.9616 27.779 27.3601 27.3805C27.7586 26.982 27.9825 26.4415 27.9825 25.8779V2.50293C27.9825 1.93934 27.7586 1.39884 27.3601 1.00033C26.9616 0.601813 26.4211 0.37793 25.8575 0.37793ZM9.92 20.5654C9.92 20.8472 9.80806 21.1175 9.6088 21.3167C9.40954 21.516 9.13929 21.6279 8.8575 21.6279C8.57571 21.6279 8.30545 21.516 8.1062 21.3167C7.90694 21.1175 7.795 20.8472 7.795 20.5654V12.0654C7.795 11.7836 7.90694 11.5134 8.1062 11.3141C8.30545 11.1149 8.57571 11.0029 8.8575 11.0029C9.13929 11.0029 9.40954 11.1149 9.6088 11.3141C9.80806 11.5134 9.92 11.7836 9.92 12.0654V20.5654ZM8.8575 9.94043C8.54228 9.94043 8.23415 9.84696 7.97206 9.67183C7.70997 9.49671 7.50569 9.2478 7.38507 8.95658C7.26444 8.66536 7.23288 8.34491 7.29437 8.03575C7.35587 7.7266 7.50766 7.44262 7.73055 7.21973C7.95344 6.99684 8.23742 6.84505 8.54657 6.78355C8.85573 6.72206 9.17618 6.75362 9.4674 6.87425C9.75862 6.99487 10.0075 7.19915 10.1827 7.46124C10.3578 7.72333 10.4512 8.03147 10.4512 8.34668C10.4512 8.76937 10.2833 9.17475 9.98445 9.47363C9.68556 9.77252 9.28019 9.94043 8.8575 9.94043ZM21.6075 20.5654C21.6075 20.8472 21.4956 21.1175 21.2963 21.3167C21.097 21.516 20.8268 21.6279 20.545 21.6279C20.2632 21.6279 19.993 21.516 19.7937 21.3167C19.5944 21.1175 19.4825 20.8472 19.4825 20.5654V15.7842C19.4825 15.0797 19.2026 14.4041 18.7045 13.9059C18.2064 13.4078 17.5307 13.1279 16.8262 13.1279C16.1218 13.1279 15.4461 13.4078 14.948 13.9059C14.4499 14.4041 14.17 15.0797 14.17 15.7842V20.5654C14.17 20.8472 14.0581 21.1175 13.8588 21.3167C13.6595 21.516 13.3893 21.6279 13.1075 21.6279C12.8257 21.6279 12.5555 21.516 12.3562 21.3167C12.1569 21.1175 12.045 20.8472 12.045 20.5654V12.0654C12.0463 11.8052 12.1431 11.5545 12.317 11.3608C12.4909 11.1672 12.7298 11.0442 12.9885 11.015C13.2471 10.9858 13.5074 11.0526 13.7201 11.2027C13.9327 11.3527 14.0829 11.5756 14.1421 11.829C14.8609 11.3414 15.6989 11.0588 16.5661 11.0116C17.4334 10.9643 18.2971 11.1542 19.0646 11.5608C19.8321 11.9674 20.4743 12.5754 20.9223 13.3195C21.3703 14.0636 21.6072 14.9156 21.6075 15.7842V20.5654Z" fill="#F7F6E9"/>
</svg>
