<svg width="20" height="16" viewBox="0 0 20 16" fill="none" xmlns="http://www.w3.org/2000/svg">
<path d="M18.8599 0.5H0.859863C0.660951 0.5 0.470185 0.579018 0.329533 0.71967C0.188881 0.860322 0.109863 1.05109 0.109863 1.25V14C0.109863 14.3978 0.267898 14.7794 0.549203 15.0607C0.830508 15.342 1.21204 15.5 1.60986 15.5H18.1099C18.5077 15.5 18.8892 15.342 19.1705 15.0607C19.4518 14.7794 19.6099 14.3978 19.6099 14V1.25C19.6099 1.05109 19.5308 0.860322 19.3902 0.71967C19.2495 0.579018 19.0588 0.5 18.8599 0.5ZM7.11393 8L1.60986 13.0447V2.95531L7.11393 8ZM8.22393 9.01719L9.34893 10.0531C9.48729 10.1801 9.66829 10.2506 9.85611 10.2506C10.0439 10.2506 10.2249 10.1801 10.3633 10.0531L11.4883 9.01719L16.9258 14H2.7883L8.22393 9.01719ZM12.6058 8L18.1099 2.95438V13.0456L12.6058 8Z" fill="#97C024"/>
</svg>
