<svg width="22" height="21" viewBox="0 0 22 21" fill="none" xmlns="http://www.w3.org/2000/svg">
<path d="M20.5872 5.04124L16.0484 0.503426C15.8975 0.352492 15.7183 0.232762 15.5211 0.151075C15.3239 0.0693879 15.1126 0.0273438 14.8992 0.0273438C14.6858 0.0273438 14.4744 0.0693879 14.2772 0.151075C14.0801 0.232762 13.9009 0.352492 13.75 0.503426L1.22633 13.0271C1.07478 13.1774 0.954622 13.3564 0.87285 13.5536C0.791077 13.7508 0.749319 13.9623 0.750001 14.1758V18.7146C0.750001 19.1456 0.921205 19.5589 1.22595 19.8636C1.5307 20.1684 1.94402 20.3396 2.375 20.3396H6.91383C7.12731 20.3403 7.33879 20.2985 7.53598 20.2167C7.73318 20.135 7.91215 20.0148 8.0625 19.8633L16.5602 11.3666L16.9137 12.7783L13.1762 16.5148C13.0237 16.6671 12.938 16.8737 12.9379 17.0892C12.9378 17.3048 13.0233 17.5115 13.1757 17.6639C13.328 17.8164 13.5346 17.9021 13.7501 17.9022C13.9657 17.9023 14.1724 17.8168 14.3248 17.6644L18.3873 13.6019C18.4867 13.5028 18.5587 13.3795 18.5962 13.2443C18.6338 13.109 18.6357 12.9663 18.6016 12.8301L17.9009 10.0259L20.5872 7.3396C20.7381 7.1887 20.8579 7.00954 20.9395 6.81236C21.0212 6.61519 21.0633 6.40385 21.0633 6.19042C21.0633 5.97699 21.0212 5.76565 20.9395 5.56847C20.8579 5.37129 20.7381 5.19214 20.5872 5.04124ZM17 8.62843L12.4622 4.0896L14.8997 1.6521L19.4375 6.19093L17 8.62843Z" fill="#97C024"/>
</svg>
