<svg width="23" height="23" viewBox="0 0 23 23" fill="none" xmlns="http://www.w3.org/2000/svg">
<path d="M22.7937 8.47066C22.6953 8.16738 22.5099 7.89974 22.2605 7.70109C22.0111 7.50244 21.7088 7.38155 21.3912 7.35347L15.3594 6.83347L12.995 1.21097C12.8719 0.915946 12.6643 0.663941 12.3982 0.486684C12.1322 0.309427 11.8197 0.214844 11.5 0.214844C11.1803 0.214844 10.8678 0.309427 10.6018 0.486684C10.3357 0.663941 10.1281 0.915946 10.005 1.21097L7.64773 6.83347L1.60882 7.35652C1.28995 7.38331 0.986093 7.50365 0.735345 7.70245C0.484597 7.90125 0.298124 8.16966 0.199312 8.47402C0.100499 8.77837 0.0937455 9.10513 0.179897 9.41331C0.266049 9.72148 0.441271 9.99737 0.68359 10.2064L5.26507 14.21L3.89195 20.1554C3.81934 20.4666 3.84006 20.7922 3.95151 21.0916C4.06297 21.391 4.26021 21.6509 4.51859 21.8389C4.77696 22.0268 5.085 22.1344 5.40419 22.1482C5.72338 22.162 6.03956 22.0814 6.3132 21.9165L11.4929 18.7681L16.6837 21.9165C16.9574 22.0814 17.2736 22.162 17.5928 22.1482C17.9119 22.1344 18.22 22.0268 18.4784 21.8389C18.7367 21.6509 18.934 21.391 19.0454 21.0916C19.1569 20.7922 19.1776 20.4666 19.105 20.1554L17.7329 14.2039L22.3134 10.2064C22.5556 9.99665 22.7305 9.71998 22.816 9.41115C22.9015 9.10231 22.8937 8.7751 22.7937 8.47066ZM21.248 8.97847L16.6675 12.976C16.4446 13.1699 16.2787 13.4209 16.1878 13.7021C16.0969 13.9832 16.0844 14.2838 16.1516 14.5715L17.5277 20.5271L12.3409 17.3787C12.0879 17.2246 11.7973 17.1431 11.501 17.1431C11.2047 17.1431 10.9141 17.2246 10.6611 17.3787L5.4814 20.5271L6.84843 14.5756C6.91562 14.2878 6.90308 13.9872 6.81217 13.7061C6.72126 13.425 6.55543 13.1739 6.3325 12.98L1.75 8.98456C1.74962 8.98153 1.74962 8.97846 1.75 8.97542L7.78687 8.45339C8.08161 8.42741 8.36366 8.32146 8.6026 8.14695C8.84154 7.97244 9.0283 7.73601 9.14273 7.46316L11.5 1.84777L13.8562 7.46316C13.9707 7.73601 14.1574 7.97244 14.3964 8.14695C14.6353 8.32146 14.9174 8.42741 15.2121 8.45339L21.25 8.97542C21.25 8.97542 21.25 8.98152 21.25 8.98253L21.248 8.97847Z" fill="#97C024"/>
</svg>
