<svg width="25" height="15" viewBox="0 0 25 15" fill="none" xmlns="http://www.w3.org/2000/svg">
<path d="M12.5 3.52734C11.6965 3.52734 10.9111 3.76561 10.243 4.212C9.57492 4.65839 9.05422 5.29287 8.74674 6.03519C8.43926 6.77752 8.35881 7.59435 8.51556 8.3824C8.67231 9.17045 9.05923 9.89431 9.62738 10.4625C10.1955 11.0306 10.9194 11.4175 11.7074 11.5743C12.4955 11.731 13.3123 11.6506 14.0547 11.3431C14.797 11.0356 15.4315 10.5149 15.8778 9.84685C16.3242 9.17877 16.5625 8.39333 16.5625 7.58984C16.5625 6.5124 16.1345 5.47909 15.3726 4.71722C14.6108 3.95536 13.5774 3.52734 12.5 3.52734ZM12.5 10.0273C12.0179 10.0273 11.5466 9.88439 11.1458 9.61655C10.745 9.34872 10.4325 8.96803 10.248 8.52263C10.0636 8.07724 10.0153 7.58714 10.1093 7.11431C10.2034 6.64148 10.4355 6.20716 10.7764 5.86627C11.1173 5.52538 11.5516 5.29323 12.0245 5.19918C12.4973 5.10513 12.9874 5.1534 13.4328 5.33789C13.8782 5.52238 14.2589 5.8348 14.5267 6.23564C14.7945 6.63649 14.9375 7.10775 14.9375 7.58984C14.9375 8.23631 14.6807 8.8563 14.2236 9.31342C13.7665 9.77054 13.1465 10.0273 12.5 10.0273ZM23.875 0.277344H1.125C0.909512 0.277344 0.702849 0.362946 0.550476 0.51532C0.398102 0.667693 0.3125 0.874355 0.3125 1.08984V14.0898C0.3125 14.3053 0.398102 14.512 0.550476 14.6644C0.702849 14.8167 0.909512 14.9023 1.125 14.9023H23.875C24.0905 14.9023 24.2972 14.8167 24.4495 14.6644C24.6019 14.512 24.6875 14.3053 24.6875 14.0898V1.08984C24.6875 0.874355 24.6019 0.667693 24.4495 0.51532C24.2972 0.362946 24.0905 0.277344 23.875 0.277344ZM19.1676 13.2773H5.83242C5.55963 12.3548 5.06035 11.5151 4.38006 10.8348C3.69977 10.1545 2.86009 9.65521 1.9375 9.38242V5.79727C2.86009 5.52447 3.69977 5.0252 4.38006 4.3449C5.06035 3.66462 5.55963 2.82493 5.83242 1.90234H19.1676C19.4404 2.82493 19.9396 3.66462 20.6199 4.3449C21.3002 5.0252 22.1399 5.52447 23.0625 5.79727V9.38242C22.1399 9.65521 21.3002 10.1545 20.6199 10.8348C19.9396 11.5151 19.4404 12.3548 19.1676 13.2773ZM23.0625 4.07273C22.0879 3.65368 21.3112 2.8769 20.8921 1.90234H23.0625V4.07273ZM4.10789 1.90234C3.68884 2.8769 2.91206 3.65368 1.9375 4.07273V1.90234H4.10789ZM1.9375 11.107C2.91206 11.526 3.68884 12.3028 4.10789 13.2773H1.9375V11.107ZM20.8921 13.2773C21.3112 12.3028 22.0879 11.526 23.0625 11.107V13.2773H20.8921Z" fill="#97C024"/>
</svg>
