<svg width="27" height="19" viewBox="0 0 27 19" fill="none" xmlns="http://www.w3.org/2000/svg">
<path d="M12.6631 17.7243C12.6192 17.9001 12.5178 18.0562 12.375 18.1677C12.2322 18.2792 12.0562 18.3398 11.875 18.3398C11.8065 18.3401 11.7383 18.3319 11.6719 18.3154L8.42187 17.5029C8.33139 17.4802 8.2455 17.4421 8.16797 17.3902L5.73047 15.7652C5.55121 15.6456 5.4268 15.4597 5.38461 15.2484C5.34242 15.037 5.38591 14.8176 5.50551 14.6384C5.6251 14.4591 5.81101 14.3347 6.02233 14.2925C6.23366 14.2503 6.45308 14.2938 6.63234 14.4134L8.95203 15.9602L12.0659 16.7392C12.17 16.7644 12.268 16.8099 12.3544 16.8732C12.4408 16.9364 12.5138 17.0161 12.5693 17.1076C12.6248 17.1992 12.6617 17.3008 12.6778 17.4066C12.6939 17.5125 12.6889 17.6204 12.6631 17.7243ZM26.1395 7.92762C26.0728 8.13011 25.9667 8.31739 25.8272 8.47864C25.6877 8.63989 25.5177 8.7719 25.327 8.86707L22.922 10.0696L17.3279 15.6646C17.2286 15.7638 17.1053 15.8356 16.9701 15.873C16.8348 15.9104 16.6921 15.9121 16.556 15.8779L10.056 14.2529C9.95717 14.2281 9.86382 14.1851 9.78078 14.126L4.14203 10.1L1.67609 8.86707C1.2907 8.67441 0.997595 8.33658 0.861229 7.92787C0.724864 7.51915 0.7564 7.07301 0.948905 6.68754L3.47273 1.6409C3.66539 1.2555 4.00322 0.9624 4.41194 0.826034C4.82065 0.689668 5.26679 0.721205 5.65226 0.913709L7.89273 2.0309L13.2755 0.493241C13.4216 0.451472 13.5764 0.451472 13.7224 0.493241L19.1052 2.0309L21.3457 0.913709C21.7312 0.721205 22.1773 0.689668 22.586 0.826034C22.9947 0.9624 23.3326 1.2555 23.5252 1.6409L26.0491 6.68754C26.1453 6.87801 26.2029 7.08568 26.2184 7.29853C26.2339 7.51138 26.2071 7.7252 26.1395 7.92762ZM21.4493 9.24183L18.6858 3.7148H15.4541L11.0625 7.98043C12.3483 8.80207 14.3643 9.02855 16.1731 7.20551C16.3144 7.06311 16.5033 6.97801 16.7036 6.96657C16.9038 6.95513 17.1012 7.01817 17.2578 7.14355L20.7526 9.94363L21.4493 9.24183ZM2.40226 7.41371L4.1989 8.31254L6.72273 3.2659L4.92609 2.36707L2.40226 7.41371ZM19.5937 11.0943L16.7795 8.84066C14.7949 10.4657 12.2752 10.68 10.187 9.34847C9.98163 9.21782 9.8082 9.04268 9.67957 8.836C9.55094 8.62932 9.47039 8.39638 9.44387 8.15439C9.41735 7.9124 9.44554 7.66754 9.52636 7.43791C9.60717 7.20828 9.73855 6.99974 9.91078 6.82769C9.91323 6.82474 9.91595 6.82201 9.9189 6.81957L14.475 2.40058L13.5 2.1223L8.37922 3.58582L5.59945 9.14433L10.5963 12.7143L16.5012 14.19L19.5937 11.0943ZM24.5947 7.41371L22.0739 2.36707L20.2773 3.2659L22.8011 8.31254L24.5947 7.41371Z" fill="#97C024"/>
</svg>
