<svg width="21" height="21" viewBox="0 0 21 21" fill="none" xmlns="http://www.w3.org/2000/svg">
<path d="M20.1941 1.65957C20.1825 1.4608 20.0983 1.27321 19.9576 1.13241C19.8168 0.991622 19.6292 0.907429 19.4304 0.895821C11.6984 0.441837 5.50516 2.76965 2.86453 7.13684C1.94922 8.63073 1.49817 10.3628 1.5686 12.1134C1.62649 13.7303 2.09774 15.3634 2.96914 16.9732L0.987658 18.9536C0.8352 19.1061 0.74955 19.3129 0.74955 19.5285C0.74955 19.7441 0.8352 19.9509 0.987658 20.1033C1.14012 20.2558 1.34689 20.3414 1.5625 20.3414C1.77811 20.3414 1.98489 20.2558 2.13735 20.1033L4.11781 18.1218C5.72656 18.9922 7.36071 19.4635 8.97656 19.5214C9.08964 19.5254 9.20237 19.5275 9.31477 19.5275C10.9517 19.5318 12.5576 19.081 13.9531 18.2254C18.3203 15.5848 20.6491 9.39254 20.1941 1.65957ZM13.1152 16.8361C10.8047 18.2356 8.06961 18.2579 5.32438 16.9143L14.3259 7.91379C14.4014 7.8383 14.4612 7.74868 14.5021 7.65005C14.5429 7.55142 14.564 7.4457 14.564 7.33895C14.564 7.23219 14.5429 7.12647 14.5021 7.02784C14.4612 6.92921 14.4014 6.83959 14.3259 6.7641C14.2504 6.68861 14.1608 6.62873 14.0621 6.58788C13.9635 6.54702 13.8578 6.52599 13.751 6.52599C13.6443 6.52599 13.5385 6.54702 13.4399 6.58788C13.3413 6.62873 13.2517 6.68861 13.1762 6.7641L4.17571 15.7696C2.8361 13.0275 2.85539 10.2853 4.25391 7.97879C6.49742 4.27481 11.8305 2.2466 18.6057 2.48832C18.8484 9.25848 16.8192 14.5925 13.1152 16.8361Z" fill="#97C024"/>
</svg>
