<svg width="23" height="19" viewBox="0 0 23 19" fill="none" xmlns="http://www.w3.org/2000/svg">
<path d="M21.25 4.08984H16.375V3.27734C16.375 2.63088 16.1182 2.01089 15.6611 1.55377C15.204 1.09665 14.584 0.839844 13.9375 0.839844H9.0625C8.41603 0.839844 7.79605 1.09665 7.33893 1.55377C6.88181 2.01089 6.625 2.63088 6.625 3.27734V4.08984H1.75C1.31902 4.08984 0.905698 4.26105 0.600951 4.5658C0.296205 4.87054 0.125 5.28387 0.125 5.71484V17.0898C0.125 17.5208 0.296205 17.9341 0.600951 18.2389C0.905698 18.5436 1.31902 18.7148 1.75 18.7148H21.25C21.681 18.7148 22.0943 18.5436 22.399 18.2389C22.7038 17.9341 22.875 17.5208 22.875 17.0898V5.71484C22.875 5.28387 22.7038 4.87054 22.399 4.5658C22.0943 4.26105 21.681 4.08984 21.25 4.08984ZM8.25 3.27734C8.25 3.06186 8.3356 2.85519 8.48798 2.70282C8.64035 2.55045 8.84701 2.46484 9.0625 2.46484H13.9375C14.153 2.46484 14.3597 2.55045 14.512 2.70282C14.6644 2.85519 14.75 3.06186 14.75 3.27734V4.08984H8.25V3.27734ZM21.25 5.71484V8.96484H18V8.15234C18 7.93686 17.9144 7.73019 17.762 7.57782C17.6097 7.42545 17.403 7.33984 17.1875 7.33984C16.972 7.33984 16.7653 7.42545 16.613 7.57782C16.4606 7.73019 16.375 7.93686 16.375 8.15234V8.96484H6.625V8.15234C6.625 7.93686 6.5394 7.73019 6.38702 7.57782C6.23465 7.42545 6.02799 7.33984 5.8125 7.33984C5.59701 7.33984 5.39035 7.42545 5.23798 7.57782C5.0856 7.73019 5 7.93686 5 8.15234V8.96484H1.75V5.71484H21.25ZM21.25 17.0898H1.75V10.5898H5V11.4023C5 11.6178 5.0856 11.8245 5.23798 11.9769C5.39035 12.1292 5.59701 12.2148 5.8125 12.2148C6.02799 12.2148 6.23465 12.1292 6.38702 11.9769C6.5394 11.8245 6.625 11.6178 6.625 11.4023V10.5898H16.375V11.4023C16.375 11.6178 16.4606 11.8245 16.613 11.9769C16.7653 12.1292 16.972 12.2148 17.1875 12.2148C17.403 12.2148 17.6097 12.1292 17.762 11.9769C17.9144 11.8245 18 11.6178 18 11.4023V10.5898H21.25V17.0898Z" fill="#97C024"/>
</svg>
