<svg width="16" height="16" viewBox="0 0 16 16" fill="none" xmlns="http://www.w3.org/2000/svg">
<path d="M7.35375 8.64625C7.40024 8.69269 7.43712 8.74783 7.46228 8.80853C7.48744 8.86923 7.50039 8.93429 7.50039 9C7.50039 9.06571 7.48744 9.13077 7.46228 9.19147C7.43712 9.25217 7.40024 9.30731 7.35375 9.35375L5.20688 11.5L6.35375 12.6462C6.42376 12.7162 6.47144 12.8053 6.49076 12.9023C6.51009 12.9994 6.50019 13.1 6.46231 13.1914C6.42444 13.2828 6.36029 13.3609 6.27799 13.4159C6.19569 13.4708 6.09895 13.5001 6 13.5H3C2.86739 13.5 2.74022 13.4473 2.64645 13.3536C2.55268 13.2598 2.5 13.1326 2.5 13V10C2.49992 9.90105 2.5292 9.80431 2.58414 9.72201C2.63908 9.63971 2.71719 9.57557 2.80861 9.53769C2.90002 9.49981 3.00061 9.48991 3.09765 9.50924C3.1947 9.52856 3.28382 9.57624 3.35375 9.64625L4.5 10.7931L6.64625 8.64625C6.69269 8.59976 6.74783 8.56288 6.80853 8.53772C6.86923 8.51256 6.93429 8.49961 7 8.49961C7.06571 8.49961 7.13077 8.51256 7.19147 8.53772C7.25217 8.56288 7.30731 8.59976 7.35375 8.64625ZM13 2.5H10C9.90105 2.49992 9.80431 2.5292 9.72201 2.58414C9.63971 2.63908 9.57557 2.71719 9.53769 2.80861C9.49981 2.90002 9.48991 3.00061 9.50924 3.09765C9.52856 3.1947 9.57624 3.28382 9.64625 3.35375L10.7931 4.5L8.64625 6.64625C8.55243 6.74007 8.49972 6.86732 8.49972 7C8.49972 7.13268 8.55243 7.25993 8.64625 7.35375C8.74007 7.44757 8.86732 7.50028 9 7.50028C9.13268 7.50028 9.25993 7.44757 9.35375 7.35375L11.5 5.20688L12.6462 6.35375C12.7162 6.42376 12.8053 6.47144 12.9023 6.49076C12.9994 6.51009 13.1 6.50019 13.1914 6.46231C13.2828 6.42444 13.3609 6.36029 13.4159 6.27799C13.4708 6.19569 13.5001 6.09895 13.5 6V3C13.5 2.86739 13.4473 2.74022 13.3536 2.64645C13.2598 2.55268 13.1326 2.5 13 2.5Z" fill="#F7F6E9"/>
</svg>
