<svg width="19" height="19" viewBox="0 0 19 19" fill="none" xmlns="http://www.w3.org/2000/svg">
<path d="M10.6876 3.63883L15.7489 8.70133C15.8012 8.75357 15.8426 8.81561 15.8709 8.88389C15.8992 8.95218 15.9138 9.02538 15.9138 9.0993C15.9138 9.17322 15.8992 9.24641 15.8709 9.3147C15.8426 9.38299 15.8012 9.44502 15.7489 9.49727L10.6876 14.5598C10.5821 14.6653 10.439 14.7246 10.2897 14.7246C10.1405 14.7246 9.99738 14.6653 9.89185 14.5598C9.78633 14.4542 9.72705 14.3111 9.72705 14.1618C9.72705 14.0125 9.78633 13.8694 9.89185 13.7638L13.9936 9.6618H2.97899C2.82984 9.6618 2.6868 9.60253 2.58134 9.49704C2.47588 9.39155 2.41663 9.24848 2.41663 9.0993C2.41663 8.95011 2.47588 8.80704 2.58134 8.70155C2.6868 8.59606 2.82984 8.5368 2.97899 8.5368H13.9936L9.89185 4.43476C9.78633 4.32922 9.72705 4.18606 9.72705 4.0368C9.72705 3.88753 9.78633 3.74438 9.89185 3.63883C9.99738 3.53328 10.1405 3.47398 10.2897 3.47398C10.439 3.47398 10.5821 3.53328 10.6876 3.63883Z" fill="#004D8B"/>
</svg>
