<svg width="19" height="19" viewBox="0 0 19 19" fill="none" xmlns="http://www.w3.org/2000/svg">
<path d="M10.7876 4.04947L15.8489 9.11197C15.9011 9.16421 15.9426 9.22625 15.9709 9.29454C15.9992 9.36282 16.0138 9.43602 16.0138 9.50994C16.0138 9.58386 15.9992 9.65706 15.9709 9.72535C15.9426 9.79363 15.9011 9.85567 15.8489 9.90791L10.7876 14.9704C10.6821 15.076 10.5389 15.1353 10.3897 15.1353C10.2405 15.1353 10.0974 15.076 9.99183 14.9704C9.88631 14.8649 9.82702 14.7217 9.82702 14.5724C9.82702 14.4232 9.88631 14.28 9.99183 14.1745L14.0936 10.0724H3.07897C2.92982 10.0724 2.78678 10.0132 2.68131 9.90769C2.57585 9.8022 2.5166 9.65913 2.5166 9.50994C2.5166 9.36076 2.57585 9.21768 2.68131 9.11219C2.78678 9.0067 2.92982 8.94744 3.07897 8.94744H14.0936L9.99183 4.84541C9.88631 4.73986 9.82702 4.59671 9.82702 4.44744C9.82702 4.29817 9.88631 4.15502 9.99183 4.04947C10.0974 3.94392 10.2405 3.88463 10.3897 3.88463C10.5389 3.88463 10.6821 3.94392 10.7876 4.04947Z" fill="white"/>
</svg>
