<svg width="22" height="22" viewBox="0 0 22 22" fill="none" xmlns="http://www.w3.org/2000/svg">
<path d="M18.3907 3.94318C16.4241 1.99581 13.7676 0.904639 11 0.907476H10.8913C8.10885 0.936105 5.45008 2.06156 3.49266 4.03932C1.53525 6.01708 0.437353 8.68735 0.4375 11.47C0.4375 15.8372 3.13703 19.4995 7.48187 21.0341C7.97192 21.2069 8.49626 21.2596 9.0109 21.188C9.52555 21.1163 10.0155 20.9222 10.4397 20.6221C10.8638 20.322 11.2099 19.9245 11.4487 19.4631C11.6876 19.0016 11.8123 18.4896 11.8125 17.97C11.8125 17.539 11.9837 17.1257 12.2885 16.8209C12.5932 16.5162 13.0065 16.345 13.4375 16.345H18.1307C18.8679 16.3485 19.5842 16.0999 20.1606 15.6402C20.737 15.1806 21.1389 14.5376 21.2995 13.8181C21.4811 13.0185 21.5693 12.2005 21.5625 11.3806C21.5522 9.99271 21.2665 8.62068 20.722 7.344C20.1776 6.06732 19.3851 4.91138 18.3907 3.94318ZM19.711 13.4606C19.6303 13.8191 19.4297 14.1393 19.1424 14.3682C18.855 14.5972 18.4981 14.7213 18.1307 14.72H13.4375C12.5755 14.72 11.7489 15.0624 11.1394 15.6719C10.5299 16.2814 10.1875 17.108 10.1875 17.97C10.1871 18.2295 10.1246 18.4852 10.0051 18.7156C9.88562 18.9461 9.71268 19.1445 9.50076 19.2944C9.28884 19.4443 9.0441 19.5412 8.78704 19.577C8.52997 19.6129 8.26805 19.5867 8.0232 19.5005C4.34664 18.2036 2.0625 15.1262 2.0625 11.47C2.06237 9.11553 2.9913 6.85614 4.64747 5.18266C6.30364 3.50919 8.55326 2.55682 10.9076 2.53248H10.999C13.3534 2.54162 15.6099 3.47577 17.2818 5.13346C18.9538 6.79115 19.9072 9.03956 19.9365 11.3938C19.9425 12.089 19.8682 12.7825 19.7151 13.4606H19.711ZM12.2188 6.18873C12.2188 6.42977 12.1473 6.6654 12.0134 6.86583C11.8794 7.06625 11.6891 7.22246 11.4664 7.3147C11.2437 7.40695 10.9986 7.43108 10.7622 7.38406C10.5258 7.33703 10.3087 7.22096 10.1382 7.05051C9.96777 6.88007 9.85169 6.66291 9.80467 6.42649C9.75764 6.19008 9.78178 5.94503 9.87402 5.72233C9.96627 5.49963 10.1225 5.30929 10.3229 5.17537C10.5233 5.04145 10.759 4.96998 11 4.96998C11.3232 4.96998 11.6332 5.09838 11.8618 5.32694C12.0903 5.5555 12.2188 5.86549 12.2188 6.18873ZM7.75 8.62623C7.75 8.86727 7.67852 9.1029 7.5446 9.30333C7.41069 9.50375 7.22034 9.65996 6.99765 9.7522C6.77495 9.84445 6.5299 9.86858 6.29348 9.82156C6.05707 9.77453 5.83991 9.65846 5.66946 9.48801C5.49902 9.31757 5.38294 9.10041 5.33592 8.86399C5.28889 8.62758 5.31303 8.38253 5.40527 8.15983C5.49752 7.93713 5.65373 7.74679 5.85415 7.61287C6.05457 7.47895 6.2902 7.40748 6.53125 7.40748C6.85448 7.40748 7.16448 7.53588 7.39304 7.76444C7.6216 7.993 7.75 8.30299 7.75 8.62623ZM7.75 14.3137C7.75 14.5548 7.67852 14.7904 7.5446 14.9908C7.41069 15.1912 7.22034 15.3475 6.99765 15.4397C6.77495 15.5319 6.5299 15.5561 6.29348 15.5091C6.05707 15.462 5.83991 15.346 5.66946 15.1755C5.49902 15.0051 5.38294 14.7879 5.33592 14.5515C5.28889 14.3151 5.31303 14.07 5.40527 13.8473C5.49752 13.6246 5.65373 13.4343 5.85415 13.3004C6.05457 13.1665 6.2902 13.095 6.53125 13.095C6.85448 13.095 7.16448 13.2234 7.39304 13.4519C7.6216 13.6805 7.75 13.9905 7.75 14.3137ZM16.6875 8.62623C16.6875 8.86727 16.616 9.1029 16.4821 9.30333C16.3482 9.50375 16.1578 9.65996 15.9351 9.7522C15.7124 9.84445 15.4674 9.86858 15.231 9.82156C14.9946 9.77453 14.7774 9.65846 14.607 9.48801C14.4365 9.31757 14.3204 9.10041 14.2734 8.86399C14.2264 8.62758 14.2505 8.38253 14.3428 8.15983C14.435 7.93713 14.5912 7.74679 14.7916 7.61287C14.9921 7.47895 15.2277 7.40748 15.4688 7.40748C15.792 7.40748 16.102 7.53588 16.3305 7.76444C16.5591 7.993 16.6875 8.30299 16.6875 8.62623Z" fill="#97C024"/>
</svg>
