<svg width="26" height="27" viewBox="0 0 26 27" fill="none" xmlns="http://www.w3.org/2000/svg">
<path d="M22.6941 4.5397C22.6825 4.34093 22.5983 4.15333 22.4575 4.01254C22.3167 3.87175 22.1291 3.78756 21.9304 3.77595C14.1984 3.32196 8.00512 5.64978 5.36449 10.017C4.44918 11.5109 3.99813 13.2429 4.06856 14.9935C4.12645 16.6104 4.5977 18.2435 5.4691 19.8533L3.48762 21.8338C3.33516 21.9862 3.24951 22.193 3.24951 22.4086C3.24951 22.6242 3.33516 22.831 3.48762 22.9834C3.64008 23.1359 3.84686 23.2216 4.06246 23.2216C4.27807 23.2216 4.48485 23.1359 4.63731 22.9834L6.61778 21.002C8.22653 21.8724 9.86067 22.3436 11.4765 22.4015C11.5896 22.4056 11.7023 22.4076 11.8147 22.4076C13.4517 22.412 15.0576 21.9612 16.4531 21.1056C20.8203 18.4649 23.1491 12.2727 22.6941 4.5397ZM15.6152 19.7162C13.3047 21.1157 10.5696 21.1381 7.82434 19.7944L16.8258 10.7939C16.9013 10.7184 16.9612 10.6288 17.0021 10.5302C17.0429 10.4315 17.0639 10.3258 17.0639 10.2191C17.0639 10.1123 17.0429 10.0066 17.0021 9.90797C16.9612 9.80934 16.9013 9.71972 16.8258 9.64423C16.7503 9.56874 16.6607 9.50886 16.5621 9.468C16.4635 9.42715 16.3577 9.40612 16.251 9.40612C16.1442 9.40612 16.0385 9.42715 15.9399 9.468C15.8412 9.50886 15.7516 9.56874 15.6761 9.64423L6.67567 18.6498C5.33606 15.9076 5.35535 13.1654 6.75387 10.8589C8.99739 7.15493 14.3304 5.12673 21.1057 5.36845C21.3484 12.1386 19.3192 17.4727 15.6152 19.7162Z" fill="#97C024"/>
</svg>
