<svg width="26" height="21" viewBox="0 0 26 21" fill="none" xmlns="http://www.w3.org/2000/svg">
<path d="M23.5625 2.96997H21.125V2.15747C21.125 1.72649 20.9538 1.31317 20.649 1.00842C20.3443 0.703675 19.931 0.532471 19.5 0.532471H6.5C6.06902 0.532471 5.6557 0.703675 5.35095 1.00842C5.0462 1.31317 4.875 1.72649 4.875 2.15747V2.96997H2.4375C2.00652 2.96997 1.5932 3.14118 1.28845 3.44592C0.983705 3.75067 0.8125 4.16399 0.8125 4.59497V6.21997C0.8125 7.29741 1.24051 8.33073 2.00238 9.09259C2.37962 9.46983 2.82746 9.76907 3.32035 9.97323C3.81323 10.1774 4.3415 10.2825 4.875 10.2825H5.2457C5.72431 11.7992 6.63687 13.1425 7.87059 14.1462C9.10431 15.15 10.6051 15.7703 12.1875 15.9304V18.4075H9.75C9.53451 18.4075 9.32785 18.4931 9.17548 18.6454C9.0231 18.7978 8.9375 19.0045 8.9375 19.22C8.9375 19.4355 9.0231 19.6421 9.17548 19.7945C9.32785 19.9469 9.53451 20.0325 9.75 20.0325H16.25C16.4655 20.0325 16.6722 19.9469 16.8245 19.7945C16.9769 19.6421 17.0625 19.4355 17.0625 19.22C17.0625 19.0045 16.9769 18.7978 16.8245 18.6454C16.6722 18.4931 16.4655 18.4075 16.25 18.4075H13.8125V15.9273C17.0564 15.5993 19.7478 13.3233 20.7269 10.2825H21.125C22.2024 10.2825 23.2358 9.85446 23.9976 9.09259C24.7595 8.33073 25.1875 7.29741 25.1875 6.21997V4.59497C25.1875 4.16399 25.0163 3.75067 24.7115 3.44592C24.4068 3.14118 23.9935 2.96997 23.5625 2.96997ZM4.875 8.65747C4.22853 8.65747 3.60855 8.40066 3.15143 7.94354C2.69431 7.48642 2.4375 6.86644 2.4375 6.21997V4.59497H4.875V7.84497C4.875 8.1158 4.8882 8.38664 4.91461 8.65747H4.875ZM19.5 7.75356C19.5 11.3611 16.6065 14.3186 13.0498 14.345H13C11.2761 14.345 9.62279 13.6602 8.40381 12.4412C7.18482 11.2222 6.5 9.56888 6.5 7.84497V2.15747H19.5V7.75356ZM23.5625 6.21997C23.5625 6.86644 23.3057 7.48642 22.8486 7.94354C22.3915 8.40066 21.7715 8.65747 21.125 8.65747H21.0742C21.1076 8.35732 21.1245 8.05557 21.125 7.75356V4.59497H23.5625V6.21997Z" fill="#97C024"/>
</svg>
