<svg width="26" height="27" viewBox="0 0 26 27" fill="none" xmlns="http://www.w3.org/2000/svg">
<path d="M20.3125 8.59498H18.6875V6.96998C18.6868 6.31015 18.4852 5.66617 18.1096 5.12366C17.734 4.58116 17.2022 4.16583 16.5848 3.93289C15.9675 3.69995 15.2939 3.66044 14.6535 3.81961C14.0132 3.97878 13.4364 4.32909 13 4.82396C12.5841 4.35253 12.0403 4.01186 11.4347 3.84323C10.829 3.67461 10.1874 3.68527 9.58771 3.87392C8.98799 4.06258 8.45586 4.42113 8.05581 4.90612C7.65576 5.39112 7.40497 5.98173 7.33383 6.60638C6.84022 6.31638 6.27876 6.16191 5.70628 6.1586C5.13379 6.15529 4.57059 6.30327 4.07366 6.58755C3.57674 6.87183 3.16372 7.28233 2.87641 7.77751C2.5891 8.27269 2.43769 8.83498 2.4375 9.40748V13.47C2.4375 16.2713 3.55033 18.9579 5.53118 20.9388C7.51204 22.9196 10.1987 24.0325 13 24.0325C15.8013 24.0325 18.488 22.9196 20.4688 20.9388C22.4497 18.9579 23.5625 16.2713 23.5625 13.47V11.845C23.5625 10.983 23.2201 10.1564 22.6106 9.54688C22.0011 8.93739 21.1745 8.59498 20.3125 8.59498ZM15.4375 5.34498C15.8685 5.34498 16.2818 5.51618 16.5865 5.82093C16.8913 6.12568 17.0625 6.539 17.0625 6.96998V8.59498H13.8125V6.96998C13.8125 6.539 13.9837 6.12568 14.2885 5.82093C14.5932 5.51618 15.0065 5.34498 15.4375 5.34498ZM8.9375 6.96998C8.9375 6.539 9.10871 6.12568 9.41345 5.82093C9.7182 5.51618 10.1315 5.34498 10.5625 5.34498C10.9935 5.34498 11.4068 5.51618 11.7115 5.82093C12.0163 6.12568 12.1875 6.539 12.1875 6.96998V11.0325C12.1875 11.4635 12.0163 11.8768 11.7115 12.1815C11.4068 12.4863 10.9935 12.6575 10.5625 12.6575C10.1315 12.6575 9.7182 12.4863 9.41345 12.1815C9.10871 11.8768 8.9375 11.4635 8.9375 11.0325V6.96998ZM4.0625 9.40748C4.0625 8.9765 4.2337 8.56318 4.53845 8.25843C4.8432 7.95368 5.25652 7.78248 5.6875 7.78248C6.11848 7.78248 6.5318 7.95368 6.83655 8.25843C7.14129 8.56318 7.3125 8.9765 7.3125 9.40748V11.0325C7.3125 11.4635 7.14129 11.8768 6.83655 12.1815C6.5318 12.4863 6.11848 12.6575 5.6875 12.6575C5.25652 12.6575 4.8432 12.4863 4.53845 12.1815C4.2337 11.8768 4.0625 11.4635 4.0625 11.0325V9.40748ZM21.9375 13.47C21.9375 15.8073 21.0218 18.0517 19.3867 19.7219C17.7516 21.3922 15.5273 22.3555 13.1905 22.4053C10.8536 22.4551 8.59029 21.5875 6.88553 19.9884C5.18076 18.3894 4.17027 16.1861 4.07063 13.8508C4.72007 14.2244 5.47881 14.3615 6.21792 14.2389C6.95702 14.1163 7.63088 13.7416 8.125 13.1785C8.68497 13.8165 9.47281 14.2096 10.3193 14.2732C11.1659 14.3368 12.0036 14.0659 12.6527 13.5187C12.9449 14.0031 13.3579 14.4035 13.8511 14.6806C13.3283 15.1373 12.9094 15.7006 12.6224 16.3326C12.3355 16.9647 12.1872 17.6508 12.1875 18.345C12.1875 18.5605 12.2731 18.7671 12.4255 18.9195C12.5778 19.0719 12.7845 19.1575 13 19.1575C13.2155 19.1575 13.4222 19.0719 13.5745 18.9195C13.7269 18.7671 13.8125 18.5605 13.8125 18.345C13.8125 17.483 14.1549 16.6564 14.7644 16.0469C15.3739 15.4374 16.2005 15.095 17.0625 15.095C17.278 15.095 17.4847 15.0094 17.637 14.857C17.7894 14.7046 17.875 14.498 17.875 14.2825C17.875 14.067 17.7894 13.8603 17.637 13.708C17.4847 13.5556 17.278 13.47 17.0625 13.47H15.4375C15.0065 13.47 14.5932 13.2988 14.2885 12.994C13.9837 12.6893 13.8125 12.276 13.8125 11.845V10.22H20.3125C20.7435 10.22 21.1568 10.3912 21.4615 10.6959C21.7663 11.0007 21.9375 11.414 21.9375 11.845V13.47Z" fill="#97C024"/>
</svg>
