<svg width="26" height="27" viewBox="0 0 26 27" fill="none" xmlns="http://www.w3.org/2000/svg">
<path d="M22.75 5.34497V8.18872C22.75 8.40421 22.6644 8.61087 22.512 8.76324C22.3597 8.91562 22.153 9.00122 21.9375 9.00122C21.722 9.00122 21.5153 8.91562 21.363 8.76324C21.2106 8.61087 21.125 8.40421 21.125 8.18872V5.34497H18.2812C18.0658 5.34497 17.8591 5.25937 17.7067 5.10699C17.5544 4.95462 17.4688 4.74796 17.4688 4.53247C17.4688 4.31698 17.5544 4.11032 17.7067 3.95795C17.8591 3.80557 18.0658 3.71997 18.2812 3.71997H21.125C21.556 3.71997 21.9693 3.89118 22.274 4.19592C22.5788 4.50067 22.75 4.91399 22.75 5.34497ZM21.9375 17.9387C21.722 17.9387 21.5153 18.0243 21.363 18.1767C21.2106 18.3291 21.125 18.5357 21.125 18.7512V21.595H18.2812C18.0658 21.595 17.8591 21.6806 17.7067 21.8329C17.5544 21.9853 17.4688 22.192 17.4688 22.4075C17.4688 22.623 17.5544 22.8296 17.7067 22.982C17.8591 23.1344 18.0658 23.22 18.2812 23.22H21.125C21.556 23.22 21.9693 23.0488 22.274 22.744C22.5788 22.4393 22.75 22.0259 22.75 21.595V18.7512C22.75 18.5357 22.6644 18.3291 22.512 18.1767C22.3597 18.0243 22.153 17.9387 21.9375 17.9387ZM7.71875 21.595H4.875V18.7512C4.875 18.5357 4.7894 18.3291 4.63702 18.1767C4.48465 18.0243 4.27799 17.9387 4.0625 17.9387C3.84701 17.9387 3.64035 18.0243 3.48798 18.1767C3.3356 18.3291 3.25 18.5357 3.25 18.7512V21.595C3.25 22.0259 3.4212 22.4393 3.72595 22.744C4.0307 23.0488 4.44402 23.22 4.875 23.22H7.71875C7.93424 23.22 8.1409 23.1344 8.29327 22.982C8.44565 22.8296 8.53125 22.623 8.53125 22.4075C8.53125 22.192 8.44565 21.9853 8.29327 21.8329C8.1409 21.6806 7.93424 21.595 7.71875 21.595ZM4.0625 9.00122C4.27799 9.00122 4.48465 8.91562 4.63702 8.76324C4.7894 8.61087 4.875 8.40421 4.875 8.18872V5.34497H7.71875C7.93424 5.34497 8.1409 5.25937 8.29327 5.10699C8.44565 4.95462 8.53125 4.74796 8.53125 4.53247C8.53125 4.31698 8.44565 4.11032 8.29327 3.95795C8.1409 3.80557 7.93424 3.71997 7.71875 3.71997H4.875C4.44402 3.71997 4.0307 3.89118 3.72595 4.19592C3.4212 4.50067 3.25 4.91399 3.25 5.34497V8.18872C3.25 8.40421 3.3356 8.61087 3.48798 8.76324C3.64035 8.91562 3.84701 9.00122 4.0625 9.00122ZM17.875 18.345C17.7488 18.3452 17.6242 18.3161 17.5112 18.2599C17.3982 18.2036 17.2999 18.1218 17.224 18.021C16.7321 17.3651 16.0942 16.8327 15.3608 16.466C14.6275 16.0994 13.8189 15.9085 12.999 15.9085C12.1791 15.9085 11.3705 16.0994 10.6371 16.466C9.90381 16.8327 9.26592 17.3651 8.77398 18.021C8.64442 18.1934 8.45168 18.3072 8.23817 18.3375C8.02466 18.3678 7.80786 18.312 7.63547 18.1825C7.46308 18.0529 7.34922 17.8602 7.31893 17.6467C7.28865 17.4331 7.34442 17.2163 7.47398 17.044C8.19405 16.0798 9.15375 15.3207 10.2578 14.8421C9.65282 14.2897 9.22895 13.5674 9.04184 12.7698C8.85473 11.9722 8.91311 11.1367 9.20934 10.3729C9.50556 9.60916 10.0258 8.95277 10.7017 8.48993C11.3777 8.02708 12.1777 7.77941 12.997 7.77941C13.8162 7.77941 14.6163 8.02708 15.2922 8.48993C15.9681 8.95277 16.4883 9.60916 16.7846 10.3729C17.0808 11.1367 17.1392 11.9722 16.9521 12.7698C16.765 13.5674 16.3411 14.2897 15.7361 14.8421C16.8409 15.3204 17.8013 16.0795 18.522 17.044C18.6126 17.1645 18.668 17.3078 18.6818 17.458C18.6956 17.6082 18.6674 17.7592 18.6002 17.8942C18.5331 18.0293 18.4297 18.143 18.3016 18.2226C18.1735 18.3022 18.0258 18.3445 17.875 18.345ZM13 14.2825C13.4821 14.2825 13.9534 14.1395 14.3542 13.8717C14.755 13.6038 15.0675 13.2232 15.252 12.7778C15.4364 12.3324 15.4847 11.8423 15.3907 11.3694C15.2966 10.8966 15.0645 10.4623 14.7236 10.1214C14.3827 9.78051 13.9484 9.54836 13.4755 9.45431C13.0027 9.36025 12.5126 9.40853 12.0672 9.59301C11.6218 9.7775 11.2411 10.0899 10.9733 10.4908C10.7055 10.8916 10.5625 11.3629 10.5625 11.845C10.5625 12.4914 10.8193 13.1114 11.2764 13.5685C11.7335 14.0257 12.3535 14.2825 13 14.2825Z" fill="#97C024"/>
</svg>
