<svg width="26" height="27" viewBox="0 0 26 27" fill="none" xmlns="http://www.w3.org/2000/svg">
<path d="M15.4374 23.22C15.4374 23.4355 15.3518 23.6422 15.1995 23.7945C15.0471 23.9469 14.8404 24.0325 14.6249 24.0325H11.3749C11.1594 24.0325 10.9528 23.9469 10.8004 23.7945C10.648 23.6422 10.5624 23.4355 10.5624 23.22C10.5624 23.0045 10.648 22.7979 10.8004 22.6455C10.9528 22.4931 11.1594 22.4075 11.3749 22.4075H14.6249C14.8404 22.4075 15.0471 22.4931 15.1995 22.6455C15.3518 22.7979 15.4374 23.0045 15.4374 23.22ZM12.9999 11.845C13.241 11.845 13.4766 11.7735 13.677 11.6396C13.8775 11.5057 14.0337 11.3154 14.1259 11.0927C14.2182 10.87 14.2423 10.6249 14.1953 10.3885C14.1482 10.1521 14.0322 9.93493 13.8617 9.76448C13.6913 9.59404 13.4741 9.47796 13.2377 9.43093C13.0013 9.38391 12.7562 9.40804 12.5335 9.50029C12.3108 9.59253 12.1205 9.74874 11.9866 9.94917C11.8527 10.1496 11.7812 10.3852 11.7812 10.6263C11.7812 10.9495 11.9096 11.2595 12.1381 11.4881C12.3667 11.7166 12.6767 11.845 12.9999 11.845ZM22.7113 16.2965L21.456 21.9464C21.3965 22.2147 21.2698 22.4635 21.088 22.6696C20.9061 22.8756 20.675 23.0322 20.4161 23.1246C20.1573 23.2171 19.8793 23.2423 19.608 23.1981C19.3368 23.1539 19.0812 23.0415 18.8652 22.8717L16.0986 20.7825H9.90329L7.1347 22.8717C6.91866 23.0415 6.66307 23.1539 6.39182 23.1981C6.12058 23.2423 5.84254 23.2171 5.58372 23.1246C5.3249 23.0322 5.09374 22.8756 4.91188 22.6696C4.73002 22.4635 4.60339 22.2147 4.54384 21.9464L3.28853 16.2965C3.23528 16.054 3.23797 15.8026 3.29639 15.5614C3.35482 15.3201 3.46744 15.0953 3.62571 14.9041L6.52634 11.4245C6.62369 10.1458 6.91726 8.88968 7.39673 7.70025C8.70689 4.41572 11.053 2.35502 12.0046 1.62174C12.2895 1.40102 12.6396 1.28125 12.9999 1.28125C13.3603 1.28125 13.7104 1.40102 13.9952 1.62174C14.9438 2.35502 17.293 4.41572 18.6031 7.70025C19.0826 8.88968 19.3762 10.1458 19.4735 11.4245L22.3742 14.9041C22.5324 15.0953 22.645 15.3201 22.7035 15.5614C22.7619 15.8026 22.7646 16.054 22.7113 16.2965ZM10.0983 19.1575H15.9016C18.0466 15.3449 18.4477 11.6947 17.0939 8.30252C15.8995 5.30845 13.6591 3.41533 12.9999 2.90752C12.3388 3.41533 10.0983 5.30845 8.90392 8.30252C7.55212 11.6947 7.95329 15.3449 10.0983 19.1575ZM8.57485 19.7517C7.48136 17.7644 6.81782 15.8114 6.58423 13.8925L4.87493 15.9441L6.13024 21.595L6.14853 21.5818L8.57485 19.7517ZM21.1249 15.9441L19.4156 13.8925C19.1841 15.8073 18.5219 17.7604 17.4291 19.7517L19.8513 21.5798L19.8696 21.593L21.1249 15.9441Z" fill="#97C024"/>
</svg>
