<svg width="26" height="27" viewBox="0 0 26 27" fill="none" xmlns="http://www.w3.org/2000/svg">
<path d="M12.1633 22.6045C12.1193 22.7802 12.0179 22.9363 11.8751 23.0478C11.7323 23.1593 11.5563 23.2199 11.3751 23.2199C11.3067 23.2203 11.2384 23.2121 11.172 23.1956L7.92201 22.3831C7.83153 22.3603 7.74564 22.3222 7.6681 22.2703L5.2306 20.6453C5.05135 20.5257 4.92694 20.3398 4.88475 20.1285C4.84256 19.9172 4.88605 19.6977 5.00564 19.5185C5.12524 19.3392 5.31115 19.2148 5.52247 19.1726C5.73379 19.1304 5.95322 19.1739 6.13248 19.2935L8.45217 20.8403L11.5661 21.6193C11.6701 21.6445 11.7681 21.6901 11.8545 21.7533C11.9409 21.8165 12.014 21.8962 12.0694 21.9877C12.1249 22.0793 12.1618 22.1809 12.1779 22.2867C12.194 22.3926 12.189 22.5006 12.1633 22.6045ZM25.6396 12.8077C25.5729 13.0102 25.4668 13.1975 25.3273 13.3588C25.1879 13.52 25.0179 13.652 24.8271 13.7472L22.4221 14.9497L16.828 20.5448C16.7287 20.644 16.6055 20.7157 16.4702 20.7531C16.3349 20.7905 16.1923 20.7922 16.0562 20.7581L9.55615 19.1331C9.4573 19.1082 9.36396 19.0652 9.28092 19.0061L3.64217 14.9802L1.17623 13.7472C0.790837 13.5545 0.497733 13.2167 0.361367 12.808C0.225001 12.3993 0.256538 11.9531 0.449042 11.5677L2.97287 6.52102C3.16553 6.13563 3.50336 5.84253 3.91207 5.70616C4.32079 5.56979 4.76693 5.60133 5.1524 5.79384L7.39287 6.91102L12.7757 5.37337C12.9217 5.3316 13.0765 5.3316 13.2226 5.37337L18.6054 6.91102L20.8458 5.79384C21.2313 5.60133 21.6775 5.56979 22.0862 5.70616C22.4949 5.84253 22.8327 6.13563 23.0254 6.52102L25.5492 11.5677C25.6455 11.7581 25.703 11.9658 25.7185 12.1787C25.734 12.3915 25.7072 12.6053 25.6396 12.8077ZM20.9494 14.122L18.1859 8.59493H14.9542L10.5626 12.8606C11.8484 13.6822 13.8644 13.9087 15.6733 12.0856C15.8145 11.9432 16.0035 11.8581 16.2037 11.8467C16.404 11.8353 16.6014 11.8983 16.7579 12.0237L20.2527 14.8238L20.9494 14.122ZM1.9024 12.2938L3.69904 13.1927L6.22287 8.14602L4.42623 7.2472L1.9024 12.2938ZM19.0939 15.9745L16.2796 13.7208C14.2951 15.3458 11.7753 15.5601 9.68717 14.2286C9.48176 14.0979 9.30834 13.9228 9.17971 13.7161C9.05108 13.5094 8.97053 13.2765 8.94401 13.0345C8.91749 12.7925 8.94568 12.5477 9.0265 12.318C9.10731 12.0884 9.23869 11.8799 9.41092 11.7078C9.41336 11.7049 9.41608 11.7021 9.41904 11.6997L13.9751 7.28071L13.0001 7.00243L7.87935 8.46595L5.09959 14.0245L10.0965 17.5944L16.0013 19.0701L19.0939 15.9745ZM24.0948 12.2938L21.574 7.2472L19.7774 8.14602L22.3012 13.1927L24.0948 12.2938Z" fill="#97C024"/>
</svg>
