<svg width="22" height="23" viewBox="0 0 22 23" fill="none" xmlns="http://www.w3.org/2000/svg">
<path d="M21.3248 20.6451L16.2396 15.5609C17.7135 13.7914 18.4485 11.5217 18.2916 9.22414C18.1347 6.92654 17.0981 4.77786 15.3974 3.22509C13.6967 1.67231 11.4628 0.834997 9.16039 0.887322C6.85803 0.939647 4.66448 1.87758 3.03605 3.50602C1.40761 5.13445 0.469677 7.328 0.417352 9.63036C0.365027 11.9327 1.20234 14.1666 2.75512 15.8674C4.30789 17.5681 6.45657 18.6047 8.75417 18.7616C11.0518 18.9184 13.3214 18.1835 15.0909 16.7096L20.1751 21.7948C20.2506 21.8703 20.3403 21.9302 20.4389 21.971C20.5375 22.0119 20.6432 22.0329 20.75 22.0329C20.8567 22.0329 20.9625 22.0119 21.0611 21.971C21.1597 21.9302 21.2493 21.8703 21.3248 21.7948C21.4003 21.7193 21.4602 21.6297 21.5011 21.5311C21.5419 21.4324 21.5629 21.3267 21.5629 21.22C21.5629 21.1132 21.5419 21.0075 21.5011 20.9089C21.4602 20.8102 21.4003 20.7206 21.3248 20.6451ZM2.06249 9.84496C2.06249 8.39868 2.49136 6.98488 3.29487 5.78235C4.09837 4.57982 5.24043 3.64255 6.57661 3.08909C7.9128 2.53562 9.3831 2.39081 10.8016 2.67297C12.2201 2.95512 13.523 3.65157 14.5457 4.67424C15.5684 5.69691 16.2648 6.99987 16.547 8.41836C16.8291 9.83685 16.6843 11.3071 16.1309 12.6433C15.5774 13.9795 14.6401 15.1216 13.4376 15.9251C12.2351 16.7286 10.8213 17.1575 9.37499 17.1575C7.43625 17.1553 5.57754 16.3842 4.20664 15.0133C2.83575 13.6424 2.06464 11.7837 2.06249 9.84496Z" fill="#97C024"/>
</svg>
