<svg width="26" height="27" viewBox="0 0 26 27" fill="none" xmlns="http://www.w3.org/2000/svg">
<path d="M2.43765 13.4699C2.4398 11.5312 3.21091 9.67248 4.58181 8.30159C5.9527 6.9307 7.81142 6.15958 9.75015 6.15743H20.789L19.7378 5.10728C19.5854 4.95482 19.4997 4.74804 19.4997 4.53243C19.4997 4.31683 19.5854 4.11005 19.7378 3.95759C19.8903 3.80513 20.097 3.71948 20.3127 3.71948C20.5283 3.71948 20.735 3.80513 20.8875 3.95759L23.325 6.39509C23.4005 6.47055 23.4605 6.56016 23.5014 6.65879C23.5422 6.75743 23.5633 6.86316 23.5633 6.96993C23.5633 7.07671 23.5422 7.18244 23.5014 7.28107C23.4605 7.37971 23.4005 7.46932 23.325 7.54478L20.8875 9.98228C20.735 10.1347 20.5283 10.2204 20.3127 10.2204C20.097 10.2204 19.8903 10.1347 19.7378 9.98228C19.5854 9.82982 19.4997 9.62304 19.4997 9.40743C19.4997 9.19183 19.5854 8.98505 19.7378 8.83259L20.789 7.78243H9.75015C8.24223 7.78405 6.79653 8.38378 5.73026 9.45005C4.664 10.5163 4.06426 11.962 4.06265 13.4699C4.06265 13.6854 3.97705 13.8921 3.82467 14.0445C3.6723 14.1968 3.46564 14.2824 3.25015 14.2824C3.03466 14.2824 2.828 14.1968 2.67563 14.0445C2.52325 13.8921 2.43765 13.6854 2.43765 13.4699ZM22.7502 12.6574C22.5347 12.6574 22.328 12.743 22.1756 12.8954C22.0233 13.0478 21.9377 13.2544 21.9377 13.4699C21.936 14.9779 21.3363 16.4236 20.27 17.4898C19.2038 18.5561 17.7581 19.1558 16.2502 19.1574H5.21132L6.26249 18.1073C6.33798 18.0318 6.39787 17.9422 6.43872 17.8435C6.47958 17.7449 6.5006 17.6392 6.5006 17.5324C6.5006 17.4257 6.47958 17.32 6.43872 17.2213C6.39787 17.1227 6.33798 17.0331 6.26249 16.9576C6.18701 16.8821 6.09739 16.8222 5.99875 16.7814C5.90012 16.7405 5.79441 16.7195 5.68765 16.7195C5.58089 16.7195 5.47518 16.7405 5.37655 16.7814C5.27792 16.8222 5.1883 16.8821 5.11281 16.9576L2.67531 19.3951C2.59976 19.4705 2.53983 19.5602 2.49895 19.6588C2.45806 19.7574 2.43701 19.8632 2.43701 19.9699C2.43701 20.0767 2.45806 20.1824 2.49895 20.2811C2.53983 20.3797 2.59976 20.4693 2.67531 20.5448L5.11281 22.9823C5.1883 23.0578 5.27792 23.1176 5.37655 23.1585C5.47518 23.1994 5.58089 23.2204 5.68765 23.2204C5.79441 23.2204 5.90012 23.1994 5.99875 23.1585C6.09739 23.1176 6.18701 23.0578 6.26249 22.9823C6.33798 22.9068 6.39787 22.8172 6.43872 22.7185C6.47958 22.6199 6.5006 22.5142 6.5006 22.4074C6.5006 22.3007 6.47958 22.195 6.43872 22.0963C6.39787 21.9977 6.33798 21.9081 6.26249 21.8326L5.21132 20.7824H16.2502C18.1889 20.7803 20.0476 20.0092 21.4185 18.6383C22.7894 17.2674 23.5605 15.4087 23.5627 13.4699C23.5627 13.2544 23.4771 13.0478 23.3247 12.8954C23.1723 12.743 22.9656 12.6574 22.7502 12.6574Z" fill="#97C024"/>
</svg>
