<svg width="31" height="24" viewBox="0 0 31 24" fill="none" xmlns="http://www.w3.org/2000/svg">
<path d="M11.0488 11.1279H7.33002V7.94043H11.0488C11.4715 7.94043 11.8768 8.10834 12.1757 8.40723C12.4746 8.70611 12.6425 9.11149 12.6425 9.53418C12.6425 9.95687 12.4746 10.3622 12.1757 10.6611C11.8768 10.96 11.4715 11.1279 11.0488 11.1279ZM11.58 13.2529H7.33002V17.5029H11.58C12.1436 17.5029 12.6841 17.279 13.0826 16.8805C13.4811 16.482 13.705 15.9415 13.705 15.3779C13.705 14.8143 13.4811 14.2738 13.0826 13.8753C12.6841 13.4768 12.1436 13.2529 11.58 13.2529ZM22.205 11.1279C21.546 11.1281 20.9033 11.3326 20.3653 11.7131C19.8273 12.0937 19.4205 12.6316 19.2008 13.2529H25.2092C24.9896 12.6316 24.5827 12.0937 24.0447 11.7131C23.5067 11.3326 22.864 11.1281 22.205 11.1279ZM30.705 2.62793V21.7529C30.705 22.3165 30.4811 22.857 30.0826 23.2555C29.6841 23.654 29.1436 23.8779 28.58 23.8779H3.08002C2.51643 23.8779 1.97593 23.654 1.57742 23.2555C1.1789 22.857 0.955017 22.3165 0.955017 21.7529V2.62793C0.955017 2.06434 1.1789 1.52384 1.57742 1.12533C1.97593 0.726813 2.51643 0.50293 3.08002 0.50293H28.58C29.1436 0.50293 29.6841 0.726813 30.0826 1.12533C30.4811 1.52384 30.705 2.06434 30.705 2.62793ZM17.955 6.87793C17.955 7.15972 18.067 7.42997 18.2662 7.62923C18.4655 7.82849 18.7357 7.94043 19.0175 7.94043H25.3925C25.6743 7.94043 25.9446 7.82849 26.1438 7.62923C26.3431 7.42997 26.455 7.15972 26.455 6.87793C26.455 6.59614 26.3431 6.32589 26.1438 6.12663C25.9446 5.92737 25.6743 5.81543 25.3925 5.81543H19.0175C18.7357 5.81543 18.4655 5.92737 18.2662 6.12663C18.067 6.32589 17.955 6.59614 17.955 6.87793ZM15.83 15.3779C15.8297 14.6818 15.6584 13.9965 15.3312 13.3821C15.0039 12.7677 14.5308 12.2431 13.9534 11.8544C14.3902 11.3073 14.6636 10.6481 14.7424 9.95248C14.8211 9.25688 14.7019 8.55317 14.3985 7.9223C14.0951 7.29143 13.6197 6.75902 13.0271 6.38631C12.4346 6.0136 11.7488 5.81572 11.0488 5.81543H6.26752C5.98572 5.81543 5.71547 5.92737 5.51622 6.12663C5.31696 6.32589 5.20502 6.59614 5.20502 6.87793V18.5654C5.20502 18.8472 5.31696 19.1175 5.51622 19.3167C5.71547 19.516 5.98572 19.6279 6.26752 19.6279H11.58C12.7072 19.6279 13.7882 19.1802 14.5852 18.3831C15.3823 17.5861 15.83 16.5051 15.83 15.3779ZM27.5175 14.3154C27.5175 13.1006 27.101 11.9226 26.3377 10.9775C25.5744 10.0325 24.5102 9.37766 23.3226 9.12211C22.135 8.86655 20.8957 9.02573 19.8112 9.57312C18.7267 10.1205 17.8626 11.023 17.3629 12.1303C16.8631 13.2375 16.7579 14.4826 17.0649 15.658C17.3718 16.8334 18.0723 17.8681 19.0496 18.5896C20.0269 19.3111 21.222 19.6759 22.4356 19.6232C23.6493 19.5705 24.8082 19.1034 25.7192 18.2998C25.9306 18.1133 26.0592 17.8505 26.0767 17.5691C26.0943 17.2878 25.9994 17.011 25.8129 16.7997C25.7205 16.695 25.6085 16.6096 25.4831 16.5483C25.3577 16.4869 25.2215 16.4509 25.0822 16.4422C24.8009 16.4246 24.5241 16.5195 24.3128 16.7061C23.9216 17.0507 23.4519 17.2941 22.9448 17.415C22.4377 17.5359 21.9087 17.5305 21.4041 17.3994C20.8995 17.2684 20.4348 17.0155 20.0507 16.6631C19.6666 16.3106 19.3747 15.8694 19.2008 15.3779H26.455C26.7368 15.3779 27.0071 15.266 27.2063 15.0667C27.4056 14.8675 27.5175 14.5972 27.5175 14.3154Z" fill="#F7F6E9"/>
</svg>
